<?xml version="1.0" encoding="UTF-8"?>
<svg id="Layer_1" data-name="Layer 1" xmlns="http://www.w3.org/2000/svg" version="1.1" viewBox="0 0 70 80">
  <defs>
    <style>
      .cls-1, .cls-2 {
        fill: #15191d;
      }

      .cls-1, .cls-2, .cls-3 {
        stroke-width: 0px;
      }

      .cls-1, .cls-3 {
        fill-rule: evenodd;
      }

      .cls-3 {
        fill: #fff;
      }
    </style>
  </defs>
  <path class="cls-3" d="M52.9,47c3.8-4.2,6.1-9.9,6.1-16,0-13.3-10.7-24-24-24S11,17.7,11,31s2.3,11.8,6.1,16h-.1l18,18,18-18h-.1Z"/>
  <g id="Layer_2" data-name="Layer 2">
    <path class="cls-1" d="M23.8,23v14.3h22.1v-14.3h-22.1ZM23.2,21.1c-.7,0-1.3.6-1.3,1.3v15.6c0,.7.6,1.3,1.3,1.3h23.4c.7,0,1.3-.6,1.3-1.3v-15.6c0-.7-.6-1.3-1.3-1.3h-23.4Z"/>
    <path class="cls-1" d="M31.8,18.2c-.1,0-.2,0-.3.1l-3.1,4c-.3.4-.9.5-1.4.2-.4-.3-.5-.9-.2-1.4l3.1-4c.4-.6,1.1-.9,1.8-.9h6.1c.7,0,1.4.3,1.8.9l3.1,4c.3.4.2,1-.2,1.4-.4.3-1,.2-1.4-.2l-3.1-4c0,0-.2-.1-.3-.1h-6.1Z"/>
    <path class="cls-1" d="M34.9,33.4c1.8,0,3.2-1.5,3.2-3.2s-1.5-3.2-3.2-3.2-3.2,1.5-3.2,3.2,1.5,3.2,3.2,3.2ZM34.9,35.4c2.9,0,5.2-2.3,5.2-5.2s-2.3-5.2-5.2-5.2-5.2,2.3-5.2,5.2,2.3,5.2,5.2,5.2Z"/>
    <path class="cls-2" d="M37.5,45.7v-3.2l-3.3,3.2,3.3,3.3v-3.3Z"/>
    <path class="cls-1" d="M20.5,40.7c-.2.2-.3.4-.3.5s0,.3.4.7c.4.3.9.7,1.7,1,1.6.7,3.9,1.2,6.7,1.6.5,0,.9.5.9,1.1,0,.5-.5.9-1.1.9-2.9-.3-5.4-.9-7.3-1.7-.9-.4-1.7-.8-2.3-1.4-.6-.5-1-1.2-1-2.1s.3-1.3.8-1.8c.4-.5,1-.9,1.7-1.3l.9,1.7c-.6.3-.9.6-1.2.8ZM49.2,40.7c-.2-.3-.6-.5-1.2-.8l.9-1.7c.7.4,1.3.8,1.7,1.3.4.5.8,1.1.8,1.8,0,1-.6,1.8-1.4,2.4-.8.6-1.8,1.1-3,1.5-2.2.8-5.2,1.3-8.6,1.5v2.4c0,.4-.2.7-.6.9-.4.2-.8,0-1.1-.2l-3.3-3.3c-.2-.2-.3-.4-.3-.7,0-.3.1-.5.3-.7l3.3-3.2c.3-.3.7-.3,1.1-.2.4.2.6.5.6.9v2.2c3.2-.2,6-.7,8-1.4,1.1-.4,1.9-.8,2.5-1.2.5-.4.6-.7.6-.8s0-.3-.3-.5Z"/>
  </g>
</svg>