<svg width="32" height="32" viewBox="0 0 32 32" fill="none" xmlns="http://www.w3.org/2000/svg">
<path fill-rule="evenodd" clip-rule="evenodd" d="M7.5 8.5V19.5H24.5V8.5H7.5ZM7 7C6.44772 7 6 7.44772 6 8V20C6 20.5523 6.44772 21 7 21H25C25.5523 21 26 20.5523 26 20V8C26 7.44772 25.5523 7 25 7H7Z" fill="#15191D"/>
<path fill-rule="evenodd" clip-rule="evenodd" d="M13.658 4.75C13.5799 4.75 13.5063 4.78649 13.459 4.84865L11.097 7.95405C10.8462 8.28373 10.3757 8.34771 10.046 8.09694C9.71631 7.84618 9.65233 7.37564 9.9031 7.04595L12.2651 3.94056C12.5961 3.50546 13.1113 3.25 13.658 3.25H18.3421C18.8888 3.25 19.404 3.50546 19.735 3.94056L22.097 7.04595C22.3477 7.37564 22.2838 7.84618 21.9541 8.09694C21.6244 8.34771 21.1539 8.28373 20.9031 7.95405L18.5411 4.84865C18.4938 4.78649 18.4202 4.75 18.3421 4.75H13.658Z" fill="#15191D"/>
<path fill-rule="evenodd" clip-rule="evenodd" d="M16 16.5C17.3807 16.5 18.5 15.3807 18.5 14C18.5 12.6193 17.3807 11.5 16 11.5C14.6193 11.5 13.5 12.6193 13.5 14C13.5 15.3807 14.6193 16.5 16 16.5ZM16 18C18.2091 18 20 16.2091 20 14C20 11.7909 18.2091 10 16 10C13.7909 10 12 11.7909 12 14C12 16.2091 13.7909 18 16 18Z" fill="#15191D"/>
<path d="M18 25.9516V23.5L15.4579 25.9579L18 28.5V25.9516Z" fill="#15191D"/>
<path fill-rule="evenodd" clip-rule="evenodd" d="M4.94934 22.1112C4.77811 22.3017 4.75 22.4291 4.75 22.5C4.75 22.5826 4.79066 22.7516 5.06271 23.0032C5.33465 23.2547 5.77359 23.5251 6.39404 23.7886C7.62992 24.3135 9.42819 24.7458 11.5879 25.0008C11.9993 25.0493 12.2934 25.4222 12.2448 25.8335C12.1963 26.2449 11.8234 26.539 11.4121 26.4904C9.17407 26.2262 7.22233 25.7701 5.80765 25.1692C5.10282 24.8699 4.49134 24.518 4.04418 24.1044C3.59713 23.6909 3.25 23.1518 3.25 22.5C3.25 21.9557 3.49402 21.4864 3.83385 21.1084C4.16961 20.7349 4.62779 20.4154 5.15105 20.1404L5.84895 21.4681C5.41646 21.6955 5.12465 21.9162 4.94934 22.1112ZM27.0507 22.1112C26.8754 21.9162 26.5835 21.6955 26.1511 21.4681L26.8489 20.1404C27.3722 20.4154 27.8304 20.7349 28.1662 21.1084C28.506 21.4864 28.75 21.9557 28.75 22.5C28.75 23.2699 28.2701 23.8788 27.6952 24.3246C27.1095 24.7788 26.3052 25.1627 25.3706 25.4818C23.6495 26.0695 21.3428 26.4855 18.75 26.6594V28.5001C18.75 28.8034 18.5673 29.0769 18.287 29.193C18.0068 29.3091 17.6842 29.2449 17.4697 29.0304L14.9275 26.4883C14.7853 26.3461 14.7062 26.1527 14.7079 25.9516C14.7096 25.7505 14.792 25.5585 14.9366 25.4187L17.4787 22.9609C17.6951 22.7516 18.0157 22.692 18.2928 22.8096C18.57 22.9271 18.75 23.199 18.75 23.5001V25.1559C21.2114 24.9842 23.3443 24.5887 24.8859 24.0623C25.7419 23.77 26.3735 23.4514 26.776 23.1392C27.1894 22.8187 27.25 22.5973 27.25 22.5C27.25 22.4291 27.2219 22.3017 27.0507 22.1112Z" fill="#15191D"/>
</svg>
