<?xml version="1.0" encoding="UTF-8"?>
<svg id="Layer_1" data-name="Layer 1" xmlns="http://www.w3.org/2000/svg" version="1.1" viewBox="0 0 32 32">
  <defs>
    <style>
      .cls-1 {
        fill: #fff;
        fill-rule: evenodd;
        stroke-width: 0px;
      }
    </style>
  </defs>
  <path class="cls-1" d="M22.2,9.8c.2.2.2.6,0,.8l-5.4,5.4,5.4,5.4c.2.2.2.6,0,.8-.2.2-.6.2-.8,0l-5.4-5.4-5.4,5.4c-.2.2-.6.2-.8,0-.2-.2-.2-.6,0-.8l5.4-5.4-5.4-5.4c-.2-.2-.2-.6,0-.8.2-.2.6-.2.8,0l5.4,5.4,5.4-5.4c.2-.2.6-.2.8,0Z"/>
</svg>