<svg width="32" height="32" viewBox="0 0 32 32" fill="none" xmlns="http://www.w3.org/2000/svg">
<g clip-path="url(#clip0_15_38)">
<path fill-rule="evenodd" clip-rule="evenodd" d="M22.2314 9.76861C22.451 9.98828 22.451 10.3444 22.2314 10.5641L16.7955 16L22.2314 21.4359C22.451 21.6555 22.451 22.0117 22.2314 22.2314C22.0117 22.451 21.6556 22.451 21.4359 22.2314L16 16.7955L10.5641 22.2314C10.3444 22.451 9.98829 22.451 9.76862 22.2314C9.54895 22.0117 9.54895 21.6555 9.76862 21.4359L15.2045 16L9.76862 10.5641C9.54895 10.3444 9.54895 9.98828 9.76862 9.76861C9.98829 9.54894 10.3444 9.54894 10.5641 9.76861L16 15.2045L21.4359 9.76861C21.6556 9.54894 22.0117 9.54894 22.2314 9.76861Z" fill="#15191D"/>
</g>
<defs>
<clipPath id="clip0_15_38">
<rect width="24" height="24" fill="white" transform="translate(4 4)"/>
</clipPath>
</defs>
</svg>
