<svg width="32" height="32" viewBox="0 0 32 32" fill="none" xmlns="http://www.w3.org/2000/svg">
<path fill-rule="evenodd" clip-rule="evenodd" d="M16 2.75C16.4142 2.75 16.75 3.08579 16.75 3.5V5.27576C22.0894 5.64372 26.3563 9.91063 26.7242 15.25H28.5C28.9142 15.25 29.25 15.5858 29.25 16C29.25 16.4142 28.9142 16.75 28.5 16.75H26.7242C26.3563 22.0894 22.0894 26.3563 16.75 26.7242V28.5C16.75 28.9142 16.4142 29.25 16 29.25C15.5858 29.25 15.25 28.9142 15.25 28.5V26.7242C9.91063 26.3563 5.64372 22.0894 5.27576 16.75H3.5C3.08579 16.75 2.75 16.4142 2.75 16C2.75 15.5858 3.08579 15.25 3.5 15.25H5.27576C5.64372 9.91063 9.91063 5.64372 15.25 5.27576V3.5C15.25 3.08579 15.5858 2.75 16 2.75ZM15.25 6.77997C10.7395 7.14188 7.14188 10.7395 6.77997 15.25H10.5C10.9142 15.25 11.25 15.5858 11.25 16C11.25 16.4142 10.9142 16.75 10.5 16.75H6.77997C7.14188 21.2605 10.7395 24.8581 15.25 25.22V21.5C15.25 21.0858 15.5858 20.75 16 20.75C16.4142 20.75 16.75 21.0858 16.75 21.5V25.22C21.2605 24.8581 24.8581 21.2605 25.22 16.75H21.5C21.0858 16.75 20.75 16.4142 20.75 16C20.75 15.5858 21.0858 15.25 21.5 15.25H25.22C24.8581 10.7395 21.2605 7.14188 16.75 6.77997V10.5C16.75 10.9142 16.4142 11.25 16 11.25C15.5858 11.25 15.25 10.9142 15.25 10.5V6.77997ZM14.25 16C14.25 15.0335 15.0335 14.25 16 14.25C16.9665 14.25 17.75 15.0335 17.75 16C17.75 16.9665 16.9665 17.75 16 17.75C15.0335 17.75 14.25 16.9665 14.25 16ZM16 15.75C15.8619 15.75 15.75 15.8619 15.75 16C15.75 16.1381 15.8619 16.25 16 16.25C16.1381 16.25 16.25 16.1381 16.25 16C16.25 15.8619 16.1381 15.75 16 15.75Z" fill="white"/>
</svg>
