<?xml version="1.0" encoding="UTF-8"?>
<svg id="Layer_1" data-name="Layer 1" xmlns="http://www.w3.org/2000/svg" viewBox="0 0 27.5 27.5">
  <defs>
    <style>
      .cls-1 {
        fill-rule: evenodd;
      }

      .cls-1, .cls-2 {
        fill: #15191d;
        stroke-width: 0px;
      }
    </style>
  </defs>
  <path class="cls-2" d="M13.75,9.25c.83,0,1.5-.67,1.5-1.5s-.67-1.5-1.5-1.5-1.5.67-1.5,1.5.67,1.5,1.5,1.5Z"/>
  <path class="cls-2" d="M10.75,11.5c0-.41.34-.75.75-.75h2.5c.28,0,.5.72.5.5v8h1.5c.41,0,.75.34.75.75s-.34.75-.75.75h-4.5c-.41,0-.75-.34-.75-.75s.34-.75.75-.75h1.5v-7h-1.5c-.41,0-.75-.34-.75-.75Z"/>
  <path class="cls-1" d="M13.75,0C6.16,0,0,6.16,0,13.75s6.16,13.75,13.75,13.75,13.75-6.16,13.75-13.75S21.34,0,13.75,0ZM1.5,13.75C1.5,6.98,6.98,1.5,13.75,1.5s12.25,5.48,12.25,12.25-5.48,12.25-12.25,12.25S1.5,20.52,1.5,13.75Z"/>
</svg>