<svg width="70" height="80" viewBox="0 0 70 80" fill="none" xmlns="http://www.w3.org/2000/svg">
<g filter="url(#filter0_dd_3_873)">
<path fill-rule="evenodd" clip-rule="evenodd" d="M52.8889 47C56.6892 42.7539 59 37.1468 59 31C59 17.7452 48.2548 7 35 7C21.7452 7 11 17.7452 11 31C11 37.1468 13.3108 42.7539 17.1111 47H17L35 65L53 47H52.8889Z" fill="white"/>
<path fill-rule="evenodd" clip-rule="evenodd" d="M35 17.75C35.4142 17.75 35.75 18.0858 35.75 18.5V20.2758C41.0894 20.6437 45.3563 24.9106 45.7242 30.25H47.5C47.9142 30.25 48.25 30.5858 48.25 31C48.25 31.4142 47.9142 31.75 47.5 31.75H45.7242C45.3563 37.0894 41.0894 41.3563 35.75 41.7242V43.5C35.75 43.9142 35.4142 44.25 35 44.25C34.5858 44.25 34.25 43.9142 34.25 43.5V41.7242C28.9106 41.3563 24.6437 37.0894 24.2758 31.75H22.5C22.0858 31.75 21.75 31.4142 21.75 31C21.75 30.5858 22.0858 30.25 22.5 30.25H24.2758C24.6437 24.9106 28.9106 20.6437 34.25 20.2758V18.5C34.25 18.0858 34.5858 17.75 35 17.75ZM34.25 21.78C29.7395 22.1419 26.1419 25.7395 25.78 30.25H29.5C29.9142 30.25 30.25 30.5858 30.25 31C30.25 31.4142 29.9142 31.75 29.5 31.75H25.78C26.1419 36.2605 29.7395 39.8581 34.25 40.22V36.5C34.25 36.0858 34.5858 35.75 35 35.75C35.4142 35.75 35.75 36.0858 35.75 36.5V40.22C40.2605 39.8581 43.8581 36.2605 44.22 31.75H40.5C40.0858 31.75 39.75 31.4142 39.75 31C39.75 30.5858 40.0858 30.25 40.5 30.25H44.22C43.8581 25.7395 40.2605 22.1419 35.75 21.78V25.5C35.75 25.9142 35.4142 26.25 35 26.25C34.5858 26.25 34.25 25.9142 34.25 25.5V21.78ZM33.25 31C33.25 30.0335 34.0335 29.25 35 29.25C35.9665 29.25 36.75 30.0335 36.75 31C36.75 31.9665 35.9665 32.75 35 32.75C34.0335 32.75 33.25 31.9665 33.25 31ZM35 30.75C34.8619 30.75 34.75 30.8619 34.75 31C34.75 31.1381 34.8619 31.25 35 31.25C35.1381 31.25 35.25 31.1381 35.25 31C35.25 30.8619 35.1381 30.75 35 30.75Z" fill="#15191D"/>
</g>
<defs>
<filter id="filter0_dd_3_873" x="0" y="0" width="70" height="80" filterUnits="userSpaceOnUse" color-interpolation-filters="sRGB">
<feFlood flood-opacity="0" result="BackgroundImageFix"/>
<feColorMatrix in="SourceAlpha" type="matrix" values="0 0 0 0 0 0 0 0 0 0 0 0 0 0 0 0 0 0 127 0" result="hardAlpha"/>
<feOffset dy="1"/>
<feGaussianBlur stdDeviation="1.5"/>
<feColorMatrix type="matrix" values="0 0 0 0 0 0 0 0 0 0 0 0 0 0 0 0 0 0 0.3 0"/>
<feBlend mode="normal" in2="BackgroundImageFix" result="effect1_dropShadow_3_873"/>
<feColorMatrix in="SourceAlpha" type="matrix" values="0 0 0 0 0 0 0 0 0 0 0 0 0 0 0 0 0 0 127 0" result="hardAlpha"/>
<feMorphology radius="3" operator="dilate" in="SourceAlpha" result="effect2_dropShadow_3_873"/>
<feOffset dy="4"/>
<feGaussianBlur stdDeviation="4"/>
<feColorMatrix type="matrix" values="0 0 0 0 0 0 0 0 0 0 0 0 0 0 0 0 0 0 0.15 0"/>
<feBlend mode="normal" in2="effect1_dropShadow_3_873" result="effect2_dropShadow_3_873"/>
<feBlend mode="normal" in="SourceGraphic" in2="effect2_dropShadow_3_873" result="shape"/>
</filter>
</defs>
</svg>
