<?xml version="1.0" encoding="UTF-8"?>
<svg id="Layer_1" data-name="Layer 1" xmlns="http://www.w3.org/2000/svg" version="1.1" viewBox="0 0 165.7 130.4">
  <defs>
    <style>
      .cls-1 {
        fill: none;
      }

      .cls-1, .cls-2 {
        stroke-width: 0px;
      }

      .cls-2 {
        fill: #fff;
      }
    </style>
  </defs>
  <rect class="cls-1" y="108.8" width="21.7" height="21.7"/>
  <rect class="cls-1" x="144" y="108.8" width="21.7" height="21.7"/>
  <rect class="cls-1" width="21.7" height="21.7"/>
  <rect class="cls-1" width="165.7" height="130.4"/>
  <g>
    <g>
      <rect class="cls-2" x="48.2" y="43.1" width="21.4" height="47.8"/>
      <rect class="cls-2" x="21.7" y="21.7" width="21.4" height="69.2"/>
      <path class="cls-2" d="M95.1,81.3c0-6.3-5.1-11.5-11.4-11.5s-11.3,5.2-11.3,11.5,5.1,11.3,11.3,11.3,11.4-5,11.4-11.3"/>
      <path class="cls-2" d="M122.6,43.1v27.7c0,2.5-1,3.7-3,3.7s-3.1-1.2-3.1-3.7v-27.7h-21.4v22.4c0,7.9,1.9,14.1,5.6,18.5,4.8,5.7,11.1,8.3,18.9,8.3s14.1-2.6,18.9-8.3c3.7-4.4,5.6-10.6,5.6-18.5v-22.4h-21.4Z"/>
    </g>
    <g>
      <path class="cls-2" d="M36.6,108.8h-.8s-4.5-7.5-4.5-7.5v7.5h-.8v-9.2h.8s4.5,7.6,4.5,7.6v-7.6h.8v9.2Z"/>
      <path class="cls-2" d="M69.5,108.8h-.8s-4.5-7.5-4.5-7.5v7.5h-.8v-9.2h.8s4.5,7.6,4.5,7.6v-7.6h.8v9.2Z"/>
      <path class="cls-2" d="M26.5,108.8h-4.8v-9.2h.8v8.3h4v.8Z"/>
      <path class="cls-2" d="M28.5,108.8h-.8v-9.2h.8v9.2Z"/>
      <path class="cls-2" d="M48.2,108.9c-1.8,0-3.1-1.3-3.1-3.2v-3c0-1.9,1.3-3.2,3.1-3.2s3.1,1.3,3.1,3.2v3c0,1.9-1.3,3.2-3.1,3.2ZM48.2,100.3c-1.3,0-2.2.9-2.2,2.4v3.1c0,1.4.9,2.4,2.2,2.4s2.2-.9,2.2-2.4v-3c0-1.4-.9-2.4-2.2-2.4ZM49.4,99.1c-.3,0-.5-.2-.5-.5s.2-.5.5-.5.5.2.5.5-.2.5-.5.5ZM47.1,99.1c-.3,0-.5-.2-.5-.5s.2-.5.5-.5.5.2.5.5-.2.5-.5.5Z"/>
      <path class="cls-2" d="M54,108.8h-.8v-9.2h2.6c1.9,0,3.1,1.2,3.1,3.1v.3c0,1.9-1.2,3.1-3.1,3.1h-1.8v2.6ZM54,105.3h1.8c1.4,0,2.3-.8,2.3-2.3v-.3c0-1.5-.8-2.3-2.3-2.3h-1.8v4.9Z"/>
      <path class="cls-2" d="M61.3,108.8h-.8v-9.2h.8v9.2Z"/>
      <path class="cls-2" d="M74.4,108.9c-1.8,0-3.1-1.3-3.1-3.2v-3c0-1.9,1.3-3.2,3.1-3.2s3,1.3,3.1,3.1h0s-.8,0-.8,0h0c0-1.4-.9-2.3-2.2-2.3s-2.2,1-2.2,2.6v2.9c0,1.4.9,2.4,2.2,2.4s2.2-.9,2.2-2.4v-.5h-2.3v-.8h3.1v1.2c0,1.9-1.3,3.2-3.1,3.2Z"/>
      <path class="cls-2" d="M44.8,108.8h-1s-3.2-4.3-3.2-4.3h-.9v4.3h-.8v-9.2h.8v4.1h1l2.7-4.1h1l-3,4.5,3.5,4.7Z"/>
      <path class="cls-2" d="M96.8,108.8h-.8s-4.5-7.5-4.5-7.5v7.5h-.8v-9.2h.8s4.5,7.6,4.5,7.6v-7.6h.8v9.2Z"/>
      <path class="cls-2" d="M104.7,108.8h-.8s-3-9.2-3-9.2h.9s2.5,7.8,2.5,7.8l2.5-7.8h.9,0c0,0-3,9.2-3,9.2Z"/>
      <path class="cls-2" d="M85.5,108.9c-1.8,0-3.1-1.3-3.1-3.2v-6.1h.8v6.1c0,1.4.9,2.4,2.2,2.4s2.2-.9,2.2-2.4v-6.1h.8v6.1c0,1.9-1.3,3.2-3.1,3.2Z"/>
      <path class="cls-2" d="M99.8,108.8h-.8v-9.2h.8v9.2Z"/>
      <path class="cls-2" d="M121.1,108.8h-1s-2.2-2.9-2.2-2.9h-1.7v2.9h-.8v-9.2h2.7c1.9,0,3.1,1.2,3.1,3v.3c0,1.5-.9,2.5-2.3,2.8l2.4,3ZM116.2,105.1h1.8c1.4,0,2.3-.8,2.3-2.1v-.4c0-1.4-.8-2.2-2.3-2.2h-1.8v4.6Z"/>
      <path class="cls-2" d="M130.7,108.8h-.8v-9.2h.8v9.2Z"/>
      <path class="cls-2" d="M113.9,108.8h-5.1v-9.2h5v.8h-4.2v3.3h3.1v.8h-3.1v3.4h4.3v.8Z"/>
      <path class="cls-2" d="M125.4,103.9c-1.2-.3-2.3-.6-2.3-1.9s.7-1.7,2-1.7,2.1.6,2.1,2.1h.8c0-2.2-1.5-3-2.9-3s-2.9,1-2.9,2.5,1.5,2.3,2.8,2.6c1.2.3,2.3.6,2.3,1.8s-1.1,1.8-2.2,1.8-2.2-.9-2.2-2.4h0s-.8,0-.8,0h0c0,2,1.2,3.3,3.1,3.3s3-1,3-2.6-1.4-2.2-2.8-2.5Z"/>
      <path class="cls-2" d="M134.9,108.8h-.8v-8.3h-2.4v-.8h5.6v.8h-2.4v8.3Z"/>
      <path class="cls-2" d="M138.5,99.6l2.3,5,2.3-5h.9l-2.8,5.7v3.4h-.8v-3.4l-2.8-5.7h.9Z"/>
    </g>
  </g>
</svg>