<?xml version="1.0" encoding="UTF-8"?>
<svg id="Lager_1" data-name="Lager 1" xmlns="http://www.w3.org/2000/svg" version="1.1" viewBox="0 0 326.6 112.6">
  <defs>
    <style>
      .cls-1 {
        fill: none;
      }

      .cls-1, .cls-2 {
        stroke-width: 0px;
      }

      .cls-2 {
        fill: #fff;
      }
    </style>
  </defs>
  <rect class="cls-1" x="0" width="326.6" height="112.6"/>
  <g>
    <g>
      <rect class="cls-2" x="48.2" y="43.1" width="21.4" height="47.8"/>
      <rect class="cls-2" x="21.7" y="21.7" width="21.4" height="69.2"/>
      <path class="cls-2" d="M95.1,81.3c0-6.3-5.1-11.5-11.4-11.5s-11.3,5.2-11.3,11.5,5.1,11.3,11.3,11.3,11.4-5,11.4-11.3"/>
      <path class="cls-2" d="M122.6,43.1v27.7c0,2.5-1,3.7-3,3.7s-3.1-1.2-3.1-3.7v-27.7h-21.4v22.4c0,7.9,1.9,14.1,5.6,18.5,4.8,5.7,11.1,8.3,18.9,8.3s14.1-2.6,18.9-8.3c3.7-4.4,5.6-10.6,5.6-18.5v-22.4h-21.4Z"/>
    </g>
    <g>
      <g>
        <path class="cls-2" d="M188.1,90.9h-1.7s-10-16.9-10-16.9v16.9h-1.9v-20.5h1.7s10,16.9,10,16.9v-16.9h1.9v20.5Z"/>
        <path class="cls-2" d="M205,90.9h-1.8c0,0-6.7-20.5-6.7-20.5h2c0,0,5.6,17.5,5.6,17.5l5.7-17.5h2,0c0,.1-6.7,20.5-6.7,20.5Z"/>
        <path class="cls-2" d="M163,91.1c-4.1,0-6.9-2.9-6.9-7.2v-13.6h1.9v13.6c0,3.2,2,5.3,5,5.3s5-2.1,5-5.3v-13.6h1.9v13.6c0,4.2-2.8,7.2-6.9,7.2Z"/>
        <path class="cls-2" d="M194.4,90.9h-1.9v-20.5h1.9v20.5Z"/>
        <path class="cls-2" d="M241,90.9h-2.3s-4.9-6.5-4.9-6.5h-3.8v6.5h-1.9v-20.5h6c4.3,0,6.9,2.6,6.9,6.8v.7c0,3.4-2,5.7-5.2,6.2l5.3,6.8ZM230,82.6h3.9c3.2,0,5.2-1.8,5.2-4.7v-.8c0-3.1-1.8-4.8-5.2-4.8h-3.9v10.4Z"/>
        <path class="cls-2" d="M262.1,90.9h-1.9v-20.5h1.9v20.5Z"/>
        <path class="cls-2" d="M271.5,90.9h-1.9v-18.6h-5.6v-1.9h13.1v1.9h-5.6v18.6Z"/>
        <path class="cls-2" d="M290.6,90.9h-11.5v-20.5h11v1.9h-9.1v7.4h6.9v1.7h-6.9v7.7h9.6v1.8Z"/>
        <path class="cls-2" d="M225.3,90.9h-11.5v-20.5h11.2v1.9h-9.3v7.4h6.9v1.7h-6.9v7.7h9.6v1.8Z"/>
        <path class="cls-2" d="M299.3,90.9h-1.9v-18.6h-5.4v-1.9h12.9v1.9h-5.6v18.6Z"/>
        <path class="cls-2" d="M250.4,79.8c-2.7-.7-5.2-1.3-5.2-4.2s1.6-3.8,4.5-3.8,4.6,1.3,4.7,4.8h1.9c-.1-4.9-3.4-6.6-6.5-6.6s-6.4,2.1-6.4,5.6,3.4,5.1,6.4,5.9c2.6.7,5.1,1.3,5.1,4s-2.5,4-4.9,4-5-2-5-5.4h0c0,0-1.9,0-1.9,0h0c0,4.5,2.7,7.3,6.8,7.3s6.8-2.3,6.8-5.8-3.2-4.8-6.2-5.6Z"/>
      </g>
      <g>
        <path class="cls-2" d="M189.1,63.6h-1.7s-10-16.9-10-16.9v16.9h-1.9v-20.5h1.7s10,16.9,10,16.9v-16.9h1.9v20.5Z"/>
        <path class="cls-2" d="M261.1,63.6h-1.7s-10-16.9-10-16.9v16.9h-1.9v-20.5h1.7s10,16.9,10,16.9v-16.9h1.9v20.5Z"/>
        <path class="cls-2" d="M167.2,63.6h-10.8v-20.5h1.9v18.7h8.9v1.8Z"/>
        <path class="cls-2" d="M171.3,63.6h-1.9v-20.5h1.9v20.5Z"/>
        <path class="cls-2" d="M214.5,63.8c-4.1,0-6.9-2.9-6.9-7.2v-6.7c0-4.2,2.8-7.2,6.9-7.2s6.9,3,6.9,7.2v6.7c0,4.2-2.8,7.2-6.9,7.2ZM214.5,44.6c-3,0-5,2.1-5,5.3v6.9c0,3.2,2,5.3,5,5.3s5-2.1,5-5.3v-6.8c0-3.2-2-5.3-5-5.3ZM217.1,41.9c-.6,0-1.1-.5-1.1-1.1s.5-1.1,1.1-1.1,1.1.5,1.1,1.1-.5,1.1-1.1,1.1ZM211.8,41.9c-.6,0-1.1-.5-1.1-1.1s.5-1.1,1.1-1.1,1.1.5,1.1,1.1-.5,1.1-1.1,1.1Z"/>
        <path class="cls-2" d="M227,63.6h-1.9v-20.5h5.9c4.2,0,7,2.8,7,7v.7c0,4.2-2.7,6.9-7,6.9h-4v5.9ZM227,55.9h3.9c3.2,0,5.2-1.9,5.2-5.1v-.7c0-3.3-1.9-5.2-5.2-5.2h-3.9v10.9Z"/>
        <path class="cls-2" d="M243.1,63.6h-1.9v-20.5h1.9v20.5Z"/>
        <path class="cls-2" d="M271.7,63.9c-4,0-6.9-2.9-6.9-7.2v-6.8c0-4.2,2.8-7.2,6.9-7.2s6.8,2.9,6.9,7h0c0,0-1.9,0-1.9,0h0c0-3.2-2.1-5.2-5-5.2s-5,2.2-5,5.8v6.4c0,3.2,2,5.3,5,5.3s5-2.1,5-5.3v-1.1h-5.1v-1.7h7v2.7c0,4.2-2.8,7.2-6.9,7.2Z"/>
        <path class="cls-2" d="M288.4,64c-4.2,0-6.8-2.8-6.8-7.2h0c0,0,1.9,0,1.9,0h0c0,3.5,1.9,5.5,5,5.5s4.9-1,4.9-4-2.5-3.3-5.1-4c-3-.8-6.4-1.6-6.4-5.9s2.5-5.6,6.6-5.6,6.5,1.8,6.5,6.9h0c0,0-1.9,0-1.9,0h0c0-3.8-2.4-5.2-4.7-5.2s-4.7,1.4-4.7,3.8,2.5,3.5,5.2,4.2c3.1.8,6.2,1.6,6.2,5.6s-2.6,5.8-6.8,5.8Z"/>
        <path class="cls-2" d="M207.2,63.6h-2.3s-7.1-9.5-7.1-9.5h-2.1v9.5h-1.9v-20.5h1.9v9.2h2.1l6.1-9.2h2.2l-6.7,10.1,7.8,10.4Z"/>
      </g>
    </g>
  </g>
</svg>