<svg width="32" height="32" viewBox="0 0 32 32" fill="none" xmlns="http://www.w3.org/2000/svg">
<path fill-rule="evenodd" clip-rule="evenodd" d="M21.625 14.5C21.625 18.435 18.435 21.625 14.5 21.625C10.565 21.625 7.375 18.435 7.375 14.5C7.375 10.565 10.565 7.375 14.5 7.375C18.435 7.375 21.625 10.565 21.625 14.5ZM19.9224 20.7179C18.4724 21.9834 16.5757 22.75 14.5 22.75C9.94365 22.75 6.25 19.0563 6.25 14.5C6.25 9.94365 9.94365 6.25 14.5 6.25C19.0563 6.25 22.75 9.94365 22.75 14.5C22.75 16.5757 21.9834 18.4724 20.7179 19.9224L23.8977 23.1022C24.1174 23.3219 24.1174 23.678 23.8977 23.8977C23.678 24.1174 23.3219 24.1174 23.1022 23.8977L19.9224 20.7179Z" fill="#15191D"/>
<path fill-rule="evenodd" clip-rule="evenodd" d="M13.9375 18.25C13.9375 18.5607 14.1893 18.8125 14.5 18.8125C14.8107 18.8125 15.0625 18.5607 15.0625 18.25V15.0625H18.25C18.5607 15.0625 18.8125 14.8107 18.8125 14.5C18.8125 14.1893 18.5607 13.9375 18.25 13.9375H15.0625V10.75C15.0625 10.4393 14.8107 10.1875 14.5 10.1875C14.1893 10.1875 13.9375 10.4393 13.9375 10.75V13.9375H10.75C10.4393 13.9375 10.1875 14.1893 10.1875 14.5C10.1875 14.8107 10.4393 15.0625 10.75 15.0625H13.9375L13.9375 18.25Z" fill="#15191D"/>
</svg>
