<?xml version="1.0" encoding="UTF-8"?>
<svg id="Layer_2" data-name="Layer 2" xmlns="http://www.w3.org/2000/svg" version="1.1" viewBox="0 0 32 33">
  <defs>
    <style>
      .cls-1 {
        fill: #fff;
        stroke-width: 0px;
      }
    </style>
  </defs>
  <path class="cls-1" d="M29.4,1.7h-7.6c-.4,0-.7.3-.7.8s.3.8.8.8h6.7L3.1,28.6v-6.7c0-.4-.3-.8-.8-.8s-.7.3-.7.7v7.6c0,.9.7,1.6,1.6,1.6h7.6c.4,0,.7-.3.7-.7s-.3-.8-.8-.8h-6.7L29.5,4.3v6.7c0,.4.3.8.8.8s.7-.3.7-.7V3.3c0-.9-.7-1.6-1.6-1.6Z"/>
</svg>